<mxfile host="Electron" agent="Mozilla/5.0 (Windows NT 10.0; Win64; x64) AppleWebKit/537.36 (KHTML, like Gecko) draw.io/28.2.5 Chrome/138.0.7204.251 Electron/37.6.1 Safari/537.36" version="28.2.5">
  <diagram id="C5RBs43oDa-KdzZeNtuy" name="Page-1">
    <mxGraphModel dx="541" dy="1991" grid="1" gridSize="10" guides="1" tooltips="1" connect="1" arrows="1" fold="1" page="1" pageScale="1" pageWidth="827" pageHeight="1169" math="0" shadow="0">
      <root>
        <mxCell id="WIyWlLk6GJQsqaUBKTNV-0" />
        <mxCell id="WIyWlLk6GJQsqaUBKTNV-1" parent="WIyWlLk6GJQsqaUBKTNV-0" />
        <mxCell id="HW74CYclKivIJ3GnBQ72-51" style="edgeStyle=orthogonalEdgeStyle;rounded=0;orthogonalLoop=1;jettySize=auto;html=1;exitX=1;exitY=0.5;exitDx=0;exitDy=0;entryX=1;entryY=0.5;entryDx=0;entryDy=0;" edge="1" parent="WIyWlLk6GJQsqaUBKTNV-1" source="HW74CYclKivIJ3GnBQ72-0" target="HW74CYclKivIJ3GnBQ72-18">
          <mxGeometry relative="1" as="geometry">
            <Array as="points">
              <mxPoint x="340" y="210" />
              <mxPoint x="340" y="85" />
            </Array>
          </mxGeometry>
        </mxCell>
        <mxCell id="HW74CYclKivIJ3GnBQ72-63" value="Ei" style="edgeLabel;html=1;align=center;verticalAlign=middle;resizable=0;points=[];" vertex="1" connectable="0" parent="HW74CYclKivIJ3GnBQ72-51">
          <mxGeometry x="-0.7688" y="-1" relative="1" as="geometry">
            <mxPoint as="offset" />
          </mxGeometry>
        </mxCell>
        <mxCell id="HW74CYclKivIJ3GnBQ72-53" style="edgeStyle=orthogonalEdgeStyle;rounded=0;orthogonalLoop=1;jettySize=auto;html=1;exitX=0.5;exitY=1;exitDx=0;exitDy=0;entryX=0.5;entryY=0;entryDx=0;entryDy=0;" edge="1" parent="WIyWlLk6GJQsqaUBKTNV-1" source="HW74CYclKivIJ3GnBQ72-0" target="HW74CYclKivIJ3GnBQ72-48">
          <mxGeometry relative="1" as="geometry" />
        </mxCell>
        <mxCell id="HW74CYclKivIJ3GnBQ72-55" value="Ei" style="edgeLabel;html=1;align=center;verticalAlign=middle;resizable=0;points=[];" vertex="1" connectable="0" parent="HW74CYclKivIJ3GnBQ72-53">
          <mxGeometry x="-0.2851" y="-1" relative="1" as="geometry">
            <mxPoint as="offset" />
          </mxGeometry>
        </mxCell>
        <mxCell id="HW74CYclKivIJ3GnBQ72-0" value="Kas ruudu suurus on väiksem kui 0?" style="rhombus;whiteSpace=wrap;html=1;" vertex="1" parent="WIyWlLk6GJQsqaUBKTNV-1">
          <mxGeometry x="122.5" y="170" width="160" height="80" as="geometry" />
        </mxCell>
        <mxCell id="HW74CYclKivIJ3GnBQ72-38" style="edgeStyle=orthogonalEdgeStyle;rounded=0;orthogonalLoop=1;jettySize=auto;html=1;exitX=1;exitY=0.5;exitDx=0;exitDy=0;entryX=1;entryY=0.5;entryDx=0;entryDy=0;" edge="1" parent="WIyWlLk6GJQsqaUBKTNV-1" source="HW74CYclKivIJ3GnBQ72-1" target="HW74CYclKivIJ3GnBQ72-18">
          <mxGeometry relative="1" as="geometry">
            <Array as="points">
              <mxPoint x="340" y="390" />
              <mxPoint x="340" y="85" />
            </Array>
          </mxGeometry>
        </mxCell>
        <mxCell id="HW74CYclKivIJ3GnBQ72-64" value="Ei" style="edgeLabel;html=1;align=center;verticalAlign=middle;resizable=0;points=[];" vertex="1" connectable="0" parent="HW74CYclKivIJ3GnBQ72-38">
          <mxGeometry x="-0.8795" y="1" relative="1" as="geometry">
            <mxPoint as="offset" />
          </mxGeometry>
        </mxCell>
        <mxCell id="HW74CYclKivIJ3GnBQ72-65" style="edgeStyle=orthogonalEdgeStyle;rounded=0;orthogonalLoop=1;jettySize=auto;html=1;exitX=0.5;exitY=1;exitDx=0;exitDy=0;" edge="1" parent="WIyWlLk6GJQsqaUBKTNV-1" source="HW74CYclKivIJ3GnBQ72-1" target="HW74CYclKivIJ3GnBQ72-47">
          <mxGeometry relative="1" as="geometry" />
        </mxCell>
        <mxCell id="HW74CYclKivIJ3GnBQ72-1" value="Kas ruudu suurus on suurem kui 20?" style="rhombus;whiteSpace=wrap;html=1;" vertex="1" parent="WIyWlLk6GJQsqaUBKTNV-1">
          <mxGeometry x="117.5" y="350" width="170" height="80" as="geometry" />
        </mxCell>
        <mxCell id="HW74CYclKivIJ3GnBQ72-16" style="edgeStyle=orthogonalEdgeStyle;rounded=0;orthogonalLoop=1;jettySize=auto;html=1;exitX=0.5;exitY=1;exitDx=0;exitDy=0;" edge="1" parent="WIyWlLk6GJQsqaUBKTNV-1" source="HW74CYclKivIJ3GnBQ72-11" target="HW74CYclKivIJ3GnBQ72-15">
          <mxGeometry relative="1" as="geometry" />
        </mxCell>
        <mxCell id="HW74CYclKivIJ3GnBQ72-59" value="Ei" style="edgeLabel;html=1;align=center;verticalAlign=middle;resizable=0;points=[];" vertex="1" connectable="0" parent="HW74CYclKivIJ3GnBQ72-16">
          <mxGeometry x="-0.2052" y="-1" relative="1" as="geometry">
            <mxPoint as="offset" />
          </mxGeometry>
        </mxCell>
        <mxCell id="HW74CYclKivIJ3GnBQ72-11" value="Küsib kasutajalt &quot;Palun sisesta oma kasutajanimi&quot;" style="rhombus;whiteSpace=wrap;html=1;" vertex="1" parent="WIyWlLk6GJQsqaUBKTNV-1">
          <mxGeometry x="115" y="-160" width="175" height="80" as="geometry" />
        </mxCell>
        <mxCell id="HW74CYclKivIJ3GnBQ72-13" style="edgeStyle=orthogonalEdgeStyle;rounded=0;orthogonalLoop=1;jettySize=auto;html=1;exitX=0.5;exitY=1;exitDx=0;exitDy=0;" edge="1" parent="WIyWlLk6GJQsqaUBKTNV-1" source="HW74CYclKivIJ3GnBQ72-12" target="HW74CYclKivIJ3GnBQ72-11">
          <mxGeometry relative="1" as="geometry" />
        </mxCell>
        <mxCell id="HW74CYclKivIJ3GnBQ72-12" value="Algus" style="ellipse;whiteSpace=wrap;html=1;" vertex="1" parent="WIyWlLk6GJQsqaUBKTNV-1">
          <mxGeometry x="150" y="-270" width="105" height="50" as="geometry" />
        </mxCell>
        <mxCell id="HW74CYclKivIJ3GnBQ72-19" style="edgeStyle=orthogonalEdgeStyle;rounded=0;orthogonalLoop=1;jettySize=auto;html=1;exitX=0.5;exitY=1;exitDx=0;exitDy=0;" edge="1" parent="WIyWlLk6GJQsqaUBKTNV-1" source="HW74CYclKivIJ3GnBQ72-15" target="HW74CYclKivIJ3GnBQ72-18">
          <mxGeometry relative="1" as="geometry" />
        </mxCell>
        <mxCell id="HW74CYclKivIJ3GnBQ72-24" value="JAH" style="edgeLabel;html=1;align=center;verticalAlign=middle;resizable=0;points=[];" vertex="1" connectable="0" parent="HW74CYclKivIJ3GnBQ72-19">
          <mxGeometry x="-0.4571" y="4" relative="1" as="geometry">
            <mxPoint x="-4" y="9" as="offset" />
          </mxGeometry>
        </mxCell>
        <mxCell id="HW74CYclKivIJ3GnBQ72-60" value="Ei" style="edgeStyle=orthogonalEdgeStyle;rounded=0;orthogonalLoop=1;jettySize=auto;html=1;exitX=1;exitY=0.5;exitDx=0;exitDy=0;entryX=1;entryY=0.5;entryDx=0;entryDy=0;" edge="1" parent="WIyWlLk6GJQsqaUBKTNV-1" source="HW74CYclKivIJ3GnBQ72-15" target="HW74CYclKivIJ3GnBQ72-11">
          <mxGeometry relative="1" as="geometry">
            <Array as="points">
              <mxPoint x="310" y="-15" />
              <mxPoint x="310" y="-120" />
            </Array>
          </mxGeometry>
        </mxCell>
        <mxCell id="HW74CYclKivIJ3GnBQ72-15" value="kasutajaNimi == &quot;user1&quot;" style="ellipse;whiteSpace=wrap;html=1;" vertex="1" parent="WIyWlLk6GJQsqaUBKTNV-1">
          <mxGeometry x="133.75" y="-40" width="137.5" height="50" as="geometry" />
        </mxCell>
        <mxCell id="HW74CYclKivIJ3GnBQ72-20" style="edgeStyle=orthogonalEdgeStyle;rounded=0;orthogonalLoop=1;jettySize=auto;html=1;exitX=0.5;exitY=1;exitDx=0;exitDy=0;" edge="1" parent="WIyWlLk6GJQsqaUBKTNV-1" source="HW74CYclKivIJ3GnBQ72-18" target="HW74CYclKivIJ3GnBQ72-0">
          <mxGeometry relative="1" as="geometry" />
        </mxCell>
        <mxCell id="HW74CYclKivIJ3GnBQ72-25" value="JAH" style="edgeLabel;html=1;align=center;verticalAlign=middle;resizable=0;points=[];" vertex="1" connectable="0" parent="HW74CYclKivIJ3GnBQ72-20">
          <mxGeometry x="-0.5086" relative="1" as="geometry">
            <mxPoint as="offset" />
          </mxGeometry>
        </mxCell>
        <mxCell id="HW74CYclKivIJ3GnBQ72-18" value="Küsib kasutajalt &quot;Kui suurt ruutu tahad?&quot;" style="rhombus;whiteSpace=wrap;html=1;" vertex="1" parent="WIyWlLk6GJQsqaUBKTNV-1">
          <mxGeometry x="138.5" y="50" width="128" height="70" as="geometry" />
        </mxCell>
        <mxCell id="HW74CYclKivIJ3GnBQ72-34" style="edgeStyle=orthogonalEdgeStyle;rounded=0;orthogonalLoop=1;jettySize=auto;html=1;exitX=0.5;exitY=1;exitDx=0;exitDy=0;" edge="1" parent="WIyWlLk6GJQsqaUBKTNV-1" source="HW74CYclKivIJ3GnBQ72-22" target="HW74CYclKivIJ3GnBQ72-33">
          <mxGeometry relative="1" as="geometry" />
        </mxCell>
        <mxCell id="HW74CYclKivIJ3GnBQ72-22" value="Annab vastuse &quot;Palun, siin on sinu ruut, suurusega {ruuduSuurus}x{ruuduSuurus}&quot;" style="shape=parallelogram;perimeter=parallelogramPerimeter;whiteSpace=wrap;html=1;fixedSize=1;" vertex="1" parent="WIyWlLk6GJQsqaUBKTNV-1">
          <mxGeometry x="102.75" y="680" width="212.5" height="80" as="geometry" />
        </mxCell>
        <mxCell id="HW74CYclKivIJ3GnBQ72-31" style="edgeStyle=orthogonalEdgeStyle;rounded=0;orthogonalLoop=1;jettySize=auto;html=1;" edge="1" parent="WIyWlLk6GJQsqaUBKTNV-1" source="HW74CYclKivIJ3GnBQ72-47" target="HW74CYclKivIJ3GnBQ72-30">
          <mxGeometry relative="1" as="geometry">
            <mxPoint x="202.5" y="550" as="sourcePoint" />
            <Array as="points">
              <mxPoint x="203" y="560" />
              <mxPoint x="203" y="560" />
            </Array>
          </mxGeometry>
        </mxCell>
        <mxCell id="HW74CYclKivIJ3GnBQ72-32" style="edgeStyle=orthogonalEdgeStyle;rounded=0;orthogonalLoop=1;jettySize=auto;html=1;exitX=0.5;exitY=1;exitDx=0;exitDy=0;" edge="1" parent="WIyWlLk6GJQsqaUBKTNV-1" source="HW74CYclKivIJ3GnBQ72-30" target="HW74CYclKivIJ3GnBQ72-22">
          <mxGeometry relative="1" as="geometry" />
        </mxCell>
        <mxCell id="HW74CYclKivIJ3GnBQ72-30" value="Näitab vastavalt käskule ruutu" style="shape=parallelogram;perimeter=parallelogramPerimeter;whiteSpace=wrap;html=1;fixedSize=1;" vertex="1" parent="WIyWlLk6GJQsqaUBKTNV-1">
          <mxGeometry x="148.75" y="570" width="120" height="60" as="geometry" />
        </mxCell>
        <mxCell id="HW74CYclKivIJ3GnBQ72-33" value="Lõpp" style="ellipse;whiteSpace=wrap;html=1;" vertex="1" parent="WIyWlLk6GJQsqaUBKTNV-1">
          <mxGeometry x="162.5" y="820" width="92.5" height="40" as="geometry" />
        </mxCell>
        <mxCell id="HW74CYclKivIJ3GnBQ72-47" value="Paneb muutujasse üksRida väärtuseks juurdeliites sõne &quot;_&quot; ja tähe muutujast reaKujund&lt;div&gt;&#39;█&#39;&lt;/div&gt;" style="shape=parallelogram;perimeter=parallelogramPerimeter;whiteSpace=wrap;html=1;fixedSize=1;" vertex="1" parent="WIyWlLk6GJQsqaUBKTNV-1">
          <mxGeometry x="112.5" y="460" width="180" height="60" as="geometry" />
        </mxCell>
        <mxCell id="HW74CYclKivIJ3GnBQ72-54" style="edgeStyle=orthogonalEdgeStyle;rounded=0;orthogonalLoop=1;jettySize=auto;html=1;exitX=0.5;exitY=1;exitDx=0;exitDy=0;" edge="1" parent="WIyWlLk6GJQsqaUBKTNV-1" source="HW74CYclKivIJ3GnBQ72-48" target="HW74CYclKivIJ3GnBQ72-1">
          <mxGeometry relative="1" as="geometry" />
        </mxCell>
        <mxCell id="HW74CYclKivIJ3GnBQ72-56" value="Ei" style="edgeLabel;html=1;align=center;verticalAlign=middle;resizable=0;points=[];" vertex="1" connectable="0" parent="HW74CYclKivIJ3GnBQ72-54">
          <mxGeometry x="-0.5574" y="-1" relative="1" as="geometry">
            <mxPoint as="offset" />
          </mxGeometry>
        </mxCell>
        <mxCell id="HW74CYclKivIJ3GnBQ72-66" style="edgeStyle=orthogonalEdgeStyle;rounded=0;orthogonalLoop=1;jettySize=auto;html=1;exitX=1;exitY=0.5;exitDx=0;exitDy=0;entryX=1;entryY=0.5;entryDx=0;entryDy=0;" edge="1" parent="WIyWlLk6GJQsqaUBKTNV-1" source="HW74CYclKivIJ3GnBQ72-48" target="HW74CYclKivIJ3GnBQ72-18">
          <mxGeometry relative="1" as="geometry">
            <Array as="points">
              <mxPoint x="340" y="295" />
              <mxPoint x="340" y="85" />
            </Array>
          </mxGeometry>
        </mxCell>
        <mxCell id="HW74CYclKivIJ3GnBQ72-67" value="Ei" style="edgeLabel;html=1;align=center;verticalAlign=middle;resizable=0;points=[];" vertex="1" connectable="0" parent="HW74CYclKivIJ3GnBQ72-66">
          <mxGeometry x="-0.8239" y="2" relative="1" as="geometry">
            <mxPoint as="offset" />
          </mxGeometry>
        </mxCell>
        <mxCell id="HW74CYclKivIJ3GnBQ72-48" value="Kontrollib, kas lausega &quot;Kui suurt ruutu tahad?&quot; on andud ruuduSuurus" style="shape=parallelogram;perimeter=parallelogramPerimeter;whiteSpace=wrap;html=1;fixedSize=1;" vertex="1" parent="WIyWlLk6GJQsqaUBKTNV-1">
          <mxGeometry x="117.5" y="270" width="170" height="50" as="geometry" />
        </mxCell>
      </root>
    </mxGraphModel>
  </diagram>
</mxfile>
